<svg xmlns="http://www.w3.org/2000/svg" class="motif motif--bois" viewBox="0 0 1600 700" preserveAspectRatio="xMidYMid slice" role="img" aria-label="Motif décoratif" focusable="false"><polyline points="-20,-0.7 -1,0.1 18,0.9 37,1.6 56,2.4 75,3 94,3.4 113,0 132,-3.7 151,-7.7 170,-12 189,-16.5 208,-21.7 227,-26.4 246,-32.1 265,-37.5 284,-43.3 303,-49.5 322,-56 341,-61.5 360,-67.3 379,-73.5 398,-79.2 417,-84.5 436,-89.6 455,-94.4 474,-98.7 493,-101.9 512,-105.2 531,-107.9 550,-109.4 569,-110.4 588,-111.2 607,-109.7 626,-108.8 645,-105.7 664,-103.7 683,-99.9 702,-95.4 721,-91.3 740,-90 759,-89.6 778,-89.4 797,-89.1 816,-89.3 835,-90.4 854,-91.1 873,-91.4 892,-92.2 911,-93.4 930,-96.8 949,-99.1 968,-101.9 987,-105.9 1006,-110.6 1025,-114.8 1044,-118.9 1063,-122.8 1082,-126.7 1101,-131.8 1120,-136.7 1139,-139.7 1158,-141.8 1177,-142 1196,-141.7 1215,-138 1234,-135.8 1253,-130.6 1272,-123.9 1291,-116.6 1310,-110.7 1329,-104.3 1348,-97.6 1367,-90.8 1386,-83.9 1405,-79.4 1424,-71.4 1443,-65 1462,-59.1 1481,-53.5 1500,-50.3 1519,-45.5 1538,-41.9 1557,-33 1576,-32.2 1595,-26 1614,-22.9" fill="none" stroke="currentColor" stroke-width="1.3" stroke-opacity="0.2" stroke-linecap="round"/><polyline points="-20,22.4 -1,23.2 18,24 37,24.5 56,25.1 75,25.5 94,23 113,19.3 132,15.4 151,10.9 170,6.3 189,1.3 208,-3.8 227,-8.9 246,-14.7 265,-20.5 284,-26.7 303,-32.4 322,-39.2 341,-45.3 360,-51.1 379,-57.5 398,-63.2 417,-68.9 436,-74.2 455,-79.4 474,-83.4 493,-87.8 512,-90.5 531,-93.9 550,-96.2 569,-96.9 588,-96.4 607,-95.8 626,-94.7 645,-92.2 664,-89.5 683,-85.5 702,-81 721,-77.4 740,-77.2 759,-76.4 778,-75.5 797,-74.9 816,-74.9 835,-75.5 854,-77.3 873,-75.9 892,-78.1 911,-79.8 930,-82.6 949,-87.6 968,-91.9 987,-96.6 1006,-101.3 1025,-105.7 1044,-110.4 1063,-114.6 1082,-118.5 1101,-123.5 1120,-127.8 1139,-131 1158,-133.9 1177,-133.7 1196,-132.5 1215,-130 1234,-126.2 1253,-120.9 1272,-114.1 1291,-106.4 1310,-97.5 1329,-87.6 1348,-80 1367,-72.4 1386,-65 1405,-61.9 1424,-51.9 1443,-45.2 1462,-40.7 1481,-36.7 1500,-30.7 1519,-26.8 1538,-21.6 1557,-16.5 1576,-11.6 1595,-7.2 1614,-2.3" fill="none" stroke="currentColor" stroke-width="1.8" stroke-opacity="0.1" stroke-linecap="round"/><polyline points="-20,44.6 -1,45.2 18,45.7 37,46.1 56,46.3 75,45.1 94,41.5 113,37.6 132,33.3 151,28.7 170,24.1 189,18.8 208,13.4 227,8.2 246,2.2 265,-3.3 284,-10.2 303,-15.7 322,-22.4 341,-28.5 360,-34.8 379,-40.9 398,-47 417,-53 436,-58.7 455,-63.6 474,-68.8 493,-73.6 512,-76.9 531,-79.5 550,-82 569,-83.8 588,-84.2 607,-84.1 626,-82.4 645,-79.3 664,-76 683,-72 702,-67.7 721,-65.8 740,-65.2 759,-63.5 778,-62.1 797,-61.8 816,-62.2 835,-61.1 854,-61.9 873,-63.3 892,-63.4 911,-67.5 930,-72.4 949,-77.2 968,-82 987,-87 1006,-91.9 1025,-96.9 1044,-101.4 1063,-106.2 1082,-109.7 1101,-114.3 1120,-119.5 1139,-123.6 1158,-125.4 1177,-125.6 1196,-124.9 1215,-122.3 1234,-118.2 1253,-112.3 1272,-105.2 1291,-96.3 1310,-86.2 1329,-77.2 1348,-64.1 1367,-54.2 1386,-50.3 1405,-43.2 1424,-35.5 1443,-28.5 1462,-23.8 1481,-14.6 1500,-11.6 1519,-5.1 1538,-0.8 1557,3.7 1576,8.7 1595,14.1 1614,18.5" fill="none" stroke="currentColor" stroke-width="1.1" stroke-opacity="0.2" stroke-linecap="round"/><polyline points="-20,66.1 -1,66.4 18,66.6 37,66.7 56,66.6 75,63.4 94,59.6 113,55.4 132,51.3 151,46.6 170,41.4 189,36.2 208,30.9 227,24.9 246,19.7 265,13.8 284,7.4 303,1.4 322,-4.7 341,-11 360,-17.4 379,-23.8 398,-30.1 417,-36.3 436,-42.5 455,-47.8 474,-52.7 493,-59 512,-63.5 531,-66.4 550,-70 569,-71.2 588,-72 607,-71.5 626,-69.7 645,-66.8 664,-63.5 683,-58.5 702,-54.4 721,-53.4 740,-51.1 759,-51.1 778,-50.2 797,-46.8 816,-46.7 835,-47.5 854,-46.9 873,-49.2 892,-52.6 911,-56.6 930,-61.2 949,-66.1 968,-70.8 987,-76.6 1006,-82.3 1025,-86.2 1044,-91.6 1063,-97.7 1082,-102.6 1101,-105.7 1120,-110.3 1139,-115.9 1158,-117.9 1177,-118.3 1196,-117.5 1215,-114.8 1234,-110.2 1253,-103.8 1272,-95.3 1291,-85.6 1310,-76.7 1329,-65.2 1348,-53.2 1367,-41.9 1386,-31.7 1405,-19.8 1424,-17.8 1443,-9.7 1462,-3.5 1481,2.5 1500,10.1 1519,14.2 1538,19.4 1557,24.3 1576,29.1 1595,34.5 1614,38.7" fill="none" stroke="currentColor" stroke-width="1.4" stroke-opacity="0.2" stroke-linecap="round"/><polyline points="-20,87.2 -1,87.2 18,87.2 37,86.9 56,85.1 75,81.4 94,77.6 113,73.5 132,69.2 151,64.1 170,59.7 189,54 208,48.9 227,43.9 246,37.8 265,32.1 284,26.4 303,20.3 322,14.2 341,7.8 360,1.5 379,-5.2 398,-11.1 417,-18.5 436,-24.3 455,-31.4 474,-36.6 493,-43.4 512,-48 531,-52.8 550,-56.7 569,-58.5 588,-59.6 607,-59.1 626,-57.2 645,-54.7 664,-50.5 683,-45.7 702,-41.8 721,-39.5 740,-39 759,-35.9 778,-33.8 797,-33.8 816,-31 835,-29.3 854,-32.2 873,-35.9 892,-39.4 911,-43.8 930,-48.7 949,-54 968,-59.6 987,-64.6 1006,-71.4 1025,-76.6 1044,-82.4 1063,-87.1 1082,-93.5 1101,-97.9 1120,-102.1 1139,-107.6 1158,-109.8 1177,-111 1196,-110.2 1215,-107 1234,-101.7 1253,-95.6 1272,-85.3 1291,-74.7 1310,-62.7 1329,-50.3 1348,-38.3 1367,-27.3 1386,-14.6 1405,-2.2 1424,5.9 1443,11.3 1462,19.5 1481,24.4 1500,30.4 1519,36.1 1538,42.2 1557,45.8 1576,52.7 1595,56.2 1614,61" fill="none" stroke="currentColor" stroke-width="1.9" stroke-opacity="0.1" stroke-linecap="round"/><polyline points="-20,108.7 -1,108.4 18,108 37,107.5 56,104.3 75,100.5 94,96.7 113,92.4 132,88.3 151,83.4 170,78.7 189,74.2 208,68.8 227,63.8 246,58.5 265,53.1 284,47.5 303,41.5 322,35.3 341,29.9 360,23.3 379,16.1 398,9.1 417,2 436,-4.3 455,-13 474,-19.9 493,-26.6 512,-32.7 531,-38.7 550,-42.8 569,-45.7 588,-47.3 607,-46.7 626,-44.5 645,-40.8 664,-36.8 683,-30.7 702,-28.9 721,-25 740,-23.8 759,-21.3 778,-18.4 797,-15.4 816,-13.3 835,-15 854,-17.4 873,-20.6 892,-24.5 911,-28 930,-33.8 949,-39.9 968,-44.5 987,-50.6 1006,-56.9 1025,-64.6 1044,-72 1063,-78.3 1082,-83.5 1101,-88.7 1120,-93.8 1139,-98.7 1158,-102.3 1177,-103.5 1196,-102.1 1215,-98.7 1234,-93.1 1253,-85.3 1272,-74.3 1291,-62.1 1310,-52.5 1329,-38.3 1348,-23.3 1367,-8.2 1386,5.1 1405,17.7 1424,29 1443,36.4 1462,42.9 1481,51.3 1500,54.2 1519,59.7 1538,69.5 1557,69.5 1576,79.9 1595,79.7 1614,82.1" fill="none" stroke="currentColor" stroke-width="1.9" stroke-opacity="0.2" stroke-linecap="round"/><polyline points="-20,126 -1,125.5 18,124.9 37,123.4 56,119.9 75,116.4 94,112.6 113,108.4 132,104.1 151,99.9 170,95.8 189,91.2 208,86.5 227,81.7 246,76.9 265,71.7 284,66.1 303,60.3 322,55.6 341,48.3 360,43 379,35.6 398,28.3 417,20 436,12 455,4.3 474,-4.2 493,-12.3 512,-19.8 531,-26.4 550,-31.6 569,-35.3 588,-37.5 607,-36.5 626,-34.2 645,-30.3 664,-25.6 683,-20.8 702,-17.1 721,-13.8 740,-9.8 759,-6.2 778,-2.4 797,0.6 816,0.9 835,-0.5 854,-2.3 873,-5 892,-9.2 911,-12.9 930,-20.1 949,-24.8 968,-32.5 987,-37.7 1006,-45.4 1025,-54.1 1044,-62.2 1063,-68.5 1082,-75.8 1101,-81.7 1120,-86.6 1139,-91.8 1158,-95.7 1177,-97 1196,-95.9 1215,-91.7 1234,-86.3 1253,-76.6 1272,-65.7 1291,-52 1310,-38.8 1329,-25.1 1348,-8 1367,5.7 1386,20.3 1405,33.9 1424,47.2 1443,59 1462,63.8 1481,69.7 1500,75.5 1519,86.1 1538,87.1 1557,92.7 1576,95.2 1595,104.6 1614,104.3" fill="none" stroke="currentColor" stroke-width="1.1" stroke-opacity="0.3" stroke-linecap="round"/><polyline points="-20,144.8 -1,144.1 18,143.3 37,141 56,137.7 75,134.4 94,130.7 113,127.1 132,123.1 151,119.4 170,115.3 189,111.3 208,107.2 227,103.1 246,98.6 265,93.4 284,88.4 303,83 322,77.7 341,71.5 360,65.2 379,56.9 398,49.3 417,41.5 436,32.6 455,23 474,13.4 493,4 512,-5.2 531,-12.8 550,-19.1 569,-23.8 588,-25.8 607,-26 626,-22.8 645,-19.4 664,-12.9 683,-7.2 702,-3.1 721,1.9 740,7.6 759,11.6 778,16.4 797,18.4 816,18.5 835,16.4 854,14.3 873,11.6 892,7.3 911,4.6 930,-0.8 949,-7.5 968,-16.3 987,-23.1 1006,-32.5 1025,-40.9 1044,-50.2 1063,-58.6 1082,-66.5 1101,-73.6 1120,-79.1 1139,-85 1158,-89 1177,-90.6 1196,-88.8 1215,-85.1 1234,-77.6 1253,-68.1 1272,-54.2 1291,-38.9 1310,-24.4 1329,-8 1348,10.4 1367,25.7 1386,41.2 1405,56.6 1424,68.1 1443,82.9 1462,88.3 1481,97.6 1500,103.6 1519,107.3 1538,111.7 1557,118.1 1576,123 1595,126.7 1614,129.9" fill="none" stroke="currentColor" stroke-width="1.2" stroke-opacity="0.2" stroke-linecap="round"/><polyline points="-20,164.7 -1,163.9 18,163.1 37,160.2 56,157.1 75,154.1 94,150.8 113,147.6 132,144.4 151,141.1 170,137.6 189,134 208,130.3 227,126.6 246,123 265,118.6 284,113.3 303,109.2 322,102.5 341,97.7 360,90.8 379,83.2 398,74.4 417,65 436,55.1 455,44.7 474,33.5 493,21.8 512,11.8 531,1.1 550,-6.2 569,-11.7 588,-13.7 607,-13.4 626,-11 645,-4.1 664,3.3 683,8.7 702,14.9 721,21.3 740,27.4 759,33.4 778,39.1 797,38.8 816,40.5 835,40 854,38.3 873,33 892,30.9 911,23.3 930,17.9 949,12 968,4 987,-6.7 1006,-16.6 1025,-26.7 1044,-36.9 1063,-46.8 1082,-55.9 1101,-63.8 1120,-71.2 1139,-76 1158,-81.6 1177,-83.4 1196,-81 1215,-75.4 1234,-67 1253,-54.6 1272,-41.6 1291,-23.5 1310,-5.6 1329,13.9 1348,31.7 1367,49.2 1386,64.9 1405,81.4 1424,95.7 1443,105.1 1462,117.3 1481,122.6 1500,130.2 1519,135.1 1538,139.2 1557,144.8 1576,148.8 1595,151.1 1614,151.7" fill="none" stroke="currentColor" stroke-width="1.4" stroke-opacity="0.3" stroke-linecap="round"/><polyline points="-20,182.6 -1,181.9 18,180.8 37,178.2 56,175.5 75,172.8 94,170.2 113,167.4 132,164.7 151,161.9 170,159.2 189,156.3 208,153.4 227,150.1 246,146.9 265,142.7 284,138.2 303,133.8 322,127.8 341,121.6 360,114.4 379,106.9 398,98.1 417,88.3 436,77.6 455,65.8 474,53.6 493,40.1 512,28 531,16.5 550,6.7 569,-0.3 588,-3.2 607,-3.6 626,1.8 645,8.2 664,17.7 683,25 702,32.6 721,40.4 740,48.2 759,55.5 778,58.6 797,63.1 816,63 835,63.5 854,58.4 873,57.4 892,53 911,46 930,41.7 949,33 968,23.1 987,11.6 1006,0.2 1025,-11.8 1044,-24.2 1063,-35.4 1082,-45.8 1101,-54.9 1120,-63.3 1139,-68.6 1158,-72.7 1177,-75.4 1196,-73.3 1215,-68.5 1234,-58.5 1253,-43.5 1272,-26.4 1291,-6.3 1310,14.9 1329,37.9 1348,55.7 1367,74.8 1386,90.8 1405,108 1424,119.9 1443,131.4 1462,146.8 1481,152.7 1500,158.3 1519,160.8 1538,166.8 1557,169.2 1576,171.8 1595,173.4 1614,175.2" fill="none" stroke="currentColor" stroke-width="1.1" stroke-opacity="0.3" stroke-linecap="round"/><polyline points="-20,203.3 -1,202.7 18,201.4 37,199.3 56,197.1 75,195 94,192.9 113,191 132,188.9 151,186.4 170,184.4 189,182.1 208,180.1 227,176.6 246,173.3 265,170.1 284,166.1 303,161.8 322,156.3 341,150.4 360,143.5 379,135.4 398,126.5 417,115.6 436,104.4 455,92 474,77 493,62.1 512,48.5 531,33.2 550,21 569,12.5 588,8.9 607,9.9 626,15.7 645,25.5 664,35.9 683,45.8 702,57 721,68.1 740,78.4 759,84.2 778,87.2 797,89.6 816,91.4 835,91.3 854,92.4 873,86.5 892,83.8 911,77.2 930,69.4 949,59.5 968,48.2 987,35.6 1006,21.2 1025,7.1 1044,-7.1 1063,-21.7 1082,-35.6 1101,-45.6 1120,-54.9 1139,-60.3 1158,-65.8 1177,-67 1196,-64.4 1215,-57.2 1234,-45.4 1253,-27.5 1272,-4.8 1291,20.2 1310,44.3 1329,65.7 1348,87.4 1367,108.8 1386,124 1405,139.6 1424,154.9 1443,166.9 1462,173.2 1481,182.1 1500,188.6 1519,189.5 1538,194 1557,195.1 1576,198 1595,197.8 1614,201.2" fill="none" stroke="currentColor" stroke-width="1.6" stroke-opacity="0.1" stroke-linecap="round"/><polyline points="-20,223 -1,222.7 18,221.4 37,219.8 56,218.3 75,216.9 94,215.4 113,213.9 132,212.5 151,210.9 170,209.1 189,207.4 208,205.4 227,202.6 246,199.8 265,196.9 284,193.2 303,189.2 322,184.1 341,178.3 360,171.6 379,163.9 398,154.5 417,144.3 436,130.8 455,118.2 474,103.2 493,85.4 512,69.8 531,51.6 550,36.3 569,25.3 588,20.6 607,22.6 626,30.9 645,44 664,56.5 683,70.1 702,83.1 721,97.2 740,109.6 759,112.8 778,119.2 797,124.4 816,123.1 835,124.4 854,121.4 873,118.7 892,114.8 911,108.2 930,98.9 949,87.9 968,74.9 987,60.1 1006,45.8 1025,26.9 1044,9.9 1063,-8.3 1082,-23.7 1101,-34.6 1120,-44.8 1139,-52.1 1158,-56 1177,-57.8 1196,-55.6 1215,-46.7 1234,-30.6 1253,-7.7 1272,19.2 1291,50 1310,75.6 1329,109.1 1348,123.9 1367,145.1 1386,165 1405,173.4 1424,188.5 1443,197.9 1462,206.8 1481,212.9 1500,217.2 1519,218.7 1538,220.7 1557,221.9 1576,219.5 1595,223.2 1614,222" fill="none" stroke="currentColor" stroke-width="1.6" stroke-opacity="0.1" stroke-linecap="round"/><polyline points="-20,241.9 -1,241.9 18,240.9 37,239.9 56,238.9 75,237.9 94,237.2 113,235.9 132,235.1 151,234.4 170,232.6 189,231.3 208,229.7 227,227.7 246,225.6 265,222.6 284,219 303,215 322,210.3 341,204.5 360,198.8 379,190.4 398,182 417,172.6 436,158.8 455,145.5 474,131.3 493,114.3 512,93.2 531,74.1 550,54.5 569,39.4 588,32.1 607,35 626,47 645,65.5 664,81.1 683,97.7 702,115.6 721,127.9 740,140.7 759,150.4 778,151 797,156.2 816,158.4 835,159.4 854,157.2 873,153.5 892,147.1 911,141 930,130.1 949,119 968,103.5 987,86 1006,71.9 1025,49.1 1044,30 1063,7.9 1082,-9.1 1101,-23.9 1120,-36.2 1139,-43.5 1158,-47.8 1177,-49.3 1196,-45.4 1215,-34.6 1234,-12.7 1253,16.6 1272,54.2 1291,86.6 1310,121.2 1329,143.2 1348,167 1367,189.4 1386,201.4 1405,210.6 1424,221.1 1443,228.6 1462,234.7 1481,239.7 1500,242.3 1519,244.6 1538,244.8 1557,246 1576,243.8 1595,247 1614,246.7" fill="none" stroke="currentColor" stroke-width="0.7" stroke-opacity="0.1" stroke-linecap="round"/><polyline points="-20,263.9 -1,264.1 18,263.6 37,263.2 56,262.7 75,262.4 94,262.2 113,261.4 132,261.3 151,260.5 170,259.5 189,258.3 208,257.3 227,255.5 246,253.3 265,250.8 284,247.5 303,244.5 322,239.5 341,235.6 360,229.5 379,221.8 398,216.1 417,206.2 436,196 455,182.5 474,166.9 493,149.2 512,129.5 531,105.5 550,79.8 569,57.4 588,45.9 607,50.9 626,71.6 645,96.1 664,121.7 683,138.7 702,158.7 721,177 740,185.7 759,192.4 778,197.5 797,199.9 816,200.6 835,199.8 854,198.7 873,195 892,189.4 911,181.1 930,173.7 949,159.1 968,146 987,123.2 1006,108 1025,83.2 1044,53.4 1063,31.7 1082,7.3 1101,-11.8 1120,-24.2 1139,-32.2 1158,-35.8 1177,-37.3 1196,-32.9 1215,-16.7 1234,15.7 1253,60.6 1272,109.1 1291,144.4 1310,186 1329,208.1 1348,224.5 1367,237.6 1386,241.7 1405,253.8 1424,257.9 1443,263.9 1462,267.7 1481,267.7 1500,273.1 1519,270.6 1538,269.5 1557,270.8 1576,266.6 1595,267.6 1614,266.4" fill="none" stroke="currentColor" stroke-width="1.8" stroke-opacity="0.3" stroke-linecap="round"/><polyline points="-20,284.1 -1,284.6 18,284.6 37,284.6 56,284.6 75,284.6 94,284.8 113,284.4 132,284.6 151,283.8 170,283.4 189,282.6 208,281.4 227,280 246,278.3 265,276 284,273.4 303,270.8 322,267.2 341,262.2 360,257.7 379,252.1 398,244.5 417,239.2 436,228.7 455,220 474,205.9 493,191.4 512,171 531,145.4 550,114.8 569,79.7 588,59.1 607,69.1 626,104.9 645,140.2 664,165.6 683,187.3 702,208.3 721,225.1 740,229.5 759,234 778,238.1 797,240.1 816,241.7 835,240.9 854,239.8 873,233.5 892,231.7 911,222.4 930,214 949,202 968,187.9 987,170.3 1006,149.6 1025,121 1044,89.9 1063,55.7 1082,27.1 1101,2.6 1120,-12.7 1139,-19.7 1158,-23.7 1177,-23.7 1196,-19.5 1215,7.7 1234,66.7 1253,134.9 1272,199.5 1291,231.5 1310,239.4 1329,256.2 1348,273.6 1367,277.8 1386,287.1 1405,289.1 1424,291.7 1443,294.8 1462,293.2 1481,298.8 1500,297.6 1519,294.4 1538,293.7 1557,291.7 1576,293.9 1595,291.6 1614,289.7" fill="none" stroke="currentColor" stroke-width="1.3" stroke-opacity="0.4" stroke-linecap="round"/><polyline points="-20,305.2 -1,305.9 18,306.3 37,306.8 56,307 75,307.6 94,307.8 113,307.9 132,307.9 151,307.5 170,307.1 189,306.4 208,305.6 227,304.5 246,303 265,301.5 284,299.5 303,296.6 322,294.5 341,291.4 360,287.4 379,283.5 398,278.2 417,274.8 436,267.5 455,260.9 474,253 493,242.8 512,227.4 531,204.8 550,171.4 569,125.6 588,76.3 607,103.1 626,165.2 645,206.8 664,233.6 683,252.2 702,265.4 721,275.3 740,281 759,283 778,284.9 797,285.4 816,285.6 835,285.1 854,283 873,281 892,274.3 911,266.6 930,259.5 949,245.9 968,238.6 987,218.6 1006,198.8 1025,170.9 1044,139.4 1063,97.1 1082,56.1 1101,22.1 1120,1.1 1139,-5.3 1158,-2.7 1177,0 1196,0.3 1215,81 1234,204.3 1253,245.9 1272,291.5 1291,306.9 1310,319.4 1329,325.3 1348,327.2 1367,326 1386,328 1405,326.2 1424,327.1 1443,328.4 1462,325.9 1481,323.5 1500,323.2 1519,318.9 1538,315.3 1557,317 1576,311.8 1595,313.6 1614,309.6" fill="none" stroke="currentColor" stroke-width="1.9" stroke-opacity="0.2" stroke-linecap="round"/><polyline points="-20,331 -1,331.8 18,332.5 37,333.3 56,333.9 75,334.5 94,334.9 113,335.3 132,335.5 151,335.5 170,335.3 189,335 208,334 227,333.9 246,332.8 265,331.4 284,331 303,329.3 322,326.8 341,327.1 360,325.7 379,322.7 398,321.6 417,320.7 436,319.5 455,317.7 474,317 493,313.8 512,315.7 531,314.5 550,305.4 569,292.4 588,209.5 607,306.7 626,317.7 645,334.9 664,333.5 683,338.7 702,342.8 721,342.2 740,342.8 759,341.1 778,341.2 797,339.3 816,336.3 835,336.5 854,334.5 873,334.1 892,331.7 911,325.2 930,318.6 949,316 968,306.7 987,302.9 1006,284.8 1025,265.5 1044,233.3 1063,193 1082,128.1 1101,55.1 1120,22.2 1139,28.6 1158,56.6 1177,157.7 1196,466.8 1215,461.7 1234,424.4 1253,420.5 1272,412.6 1291,404.2 1310,399.8 1329,393 1348,387.8 1367,382.7 1386,374.7 1405,372.4 1424,363.1 1443,362.1 1462,359.2 1481,352.9 1500,354.8 1519,348.4 1538,347.1 1557,346.3 1576,342.2 1595,340.7 1614,337.6" fill="none" stroke="currentColor" stroke-width="1" stroke-opacity="0.1" stroke-linecap="round"/><polyline points="-20,352.4 -1,353.2 18,354.2 37,355 56,355.8 75,356.4 94,356.9 113,357.3 132,357.6 151,357.7 170,357.8 189,357.8 208,357 227,357.1 246,357 265,356.2 284,356.3 303,355.3 322,355.4 341,356.3 360,356.1 379,357.4 398,358.6 417,360.3 436,363.4 455,368 474,370.8 493,377.9 512,389.2 531,405.7 550,436.6 569,488.5 588,580.4 607,531.9 626,467.2 645,435.8 664,419.9 683,408.2 702,401.6 721,396.7 740,392 759,389.6 778,382.6 797,385 816,378.9 835,375.9 854,375.9 873,378.4 892,375.1 911,374.3 930,375.6 949,372.2 968,373 987,370.9 1006,367.5 1025,364.6 1044,357.2 1063,327.9 1082,260.9 1101,125.6 1120,53.3 1139,132.1 1158,380.5 1177,525.9 1196,537 1215,535.4 1234,516.1 1253,499 1272,482.3 1291,468.4 1310,454.9 1329,441.8 1348,428.9 1367,421.2 1386,414.2 1405,409 1424,396.7 1443,391.1 1462,383.4 1481,386.3 1500,376.2 1519,377.7 1538,370.8 1557,367.3 1576,365.4 1595,362.1 1614,360" fill="none" stroke="currentColor" stroke-width="1.8" stroke-opacity="0.3" stroke-linecap="round"/><polyline points="-20,373.9 -1,374.5 18,375.5 37,376.4 56,377.2 75,377.9 94,378.4 113,378.8 132,379.3 151,379.5 170,379.4 189,379.7 208,379.9 227,380.5 246,380.1 265,381.2 284,381.4 303,383.2 322,384.7 341,386.4 360,388.7 379,392.3 398,396.3 417,400.6 436,408.2 455,416.6 474,426.9 493,439.6 512,462 531,487.8 550,524.7 569,568.9 588,601.3 607,588.7 626,546.9 645,509.7 664,483.2 683,465 702,454.2 721,445.4 740,438.5 759,429.4 778,427.9 797,421.7 816,419.8 835,423.6 854,419.1 873,422.7 892,422 911,423.2 930,424.7 949,429.9 968,433.5 987,442.7 1006,444.6 1025,452 1044,461.5 1063,468.2 1082,487.3 1101,515.9 1120,610.3 1139,537.4 1158,572.3 1177,576.3 1196,573.9 1215,570.6 1234,558.3 1253,546.3 1272,530.6 1291,513.4 1310,498.1 1329,485.3 1348,471.9 1367,455.7 1386,449.8 1405,439.2 1424,424.4 1443,417.4 1462,414.7 1481,406.9 1500,403.6 1519,399.2 1538,394.5 1557,392.6 1576,388.5 1595,387.1 1614,382.5" fill="none" stroke="currentColor" stroke-width="1.2" stroke-opacity="0.2" stroke-linecap="round"/><polyline points="-20,394.1 -1,394.5 18,395.5 37,396.3 56,397.1 75,397.7 94,398.4 113,398.8 132,399.5 151,399.8 170,399.9 189,400.9 208,401.5 227,402.4 246,403.9 265,405.1 284,407 303,409.5 322,412.3 341,415.8 360,420.7 379,425.1 398,431.3 417,441 436,448.2 455,462 474,476.6 493,491.3 512,516.2 531,539.9 550,570.4 569,599.7 588,615.6 607,609.5 626,585.3 645,554.5 664,528.7 683,508.4 702,495.3 721,483 740,475.1 759,467.4 778,462.9 797,461.8 816,458.1 835,459.3 854,456.8 873,460.4 892,463 911,465.9 930,471.8 949,479.4 968,485.5 987,495.8 1006,511.2 1025,522.8 1044,541.9 1063,565.9 1082,598.3 1101,639 1120,667.2 1139,642.7 1158,619.4 1177,613.5 1196,604.7 1215,599 1234,589.4 1253,576.1 1272,562.3 1291,547.2 1310,527.2 1329,516.1 1348,503.3 1367,487.6 1386,476.8 1405,461.7 1424,456.7 1443,445.3 1462,442.3 1481,432.6 1500,427.5 1519,421.6 1538,417.4 1557,414.1 1576,410.2 1595,407.6 1614,407.5" fill="none" stroke="currentColor" stroke-width="1.3" stroke-opacity="0.3" stroke-linecap="round"/><polyline points="-20,413.8 -1,413.8 18,414.7 37,415.5 56,416.2 75,417 94,417.5 113,418.3 132,419.2 151,419.6 170,421.1 189,421.7 208,423.7 227,425.2 246,426.8 265,429.7 284,432.6 303,436.1 322,440.4 341,445.2 360,451.6 379,458 398,467.1 417,476.5 436,487.4 455,500.3 474,514.3 493,533.6 512,554.9 531,577.9 550,600.3 569,619.2 588,628.5 607,624.4 626,609 645,587.3 664,564.1 683,540.9 702,527 721,515.1 740,508.5 759,502 778,498.9 797,493.5 816,493.2 835,492.4 854,493.3 873,496.7 892,500.4 911,507.3 930,513 949,520.7 968,533.3 987,546.9 1006,565.3 1025,583 1044,595 1063,620.8 1082,643.6 1101,668.6 1120,677.3 1139,669.2 1158,654.5 1177,641.2 1196,631.2 1215,623.1 1234,613.5 1253,598.6 1272,584.6 1291,574.6 1310,558.1 1329,539.6 1348,525.7 1367,514.9 1386,503.9 1405,489.8 1424,480.3 1443,471.9 1462,463.8 1481,457.5 1500,452.2 1519,444.9 1538,439.7 1557,438.7 1576,436.8 1595,429.9 1614,426.6" fill="none" stroke="currentColor" stroke-width="1.7" stroke-opacity="0.3" stroke-linecap="round"/><polyline points="-20,434.9 -1,434.5 18,435.1 37,436 56,436.7 75,437.7 94,438.6 113,439.3 132,440.4 151,441.6 170,443.2 189,445.3 208,447.3 227,450.1 246,453.1 265,456.8 284,460.9 303,466 322,470.9 341,477.1 360,484.6 379,492.4 398,502.6 417,513.1 436,525.4 455,539.2 474,552.6 493,570.6 512,588.3 531,606.1 550,622.8 569,635.6 588,641 607,638.8 626,627.5 645,609.7 664,590.4 683,573.5 702,558.3 721,547.4 740,541 759,534.4 778,529 797,526.9 816,527.1 835,527.5 854,529.7 873,532.8 892,537.5 911,545.1 930,554.2 949,565.1 968,571.6 987,587.5 1006,604.4 1025,616.8 1044,633.3 1063,653 1082,668.9 1101,681.4 1120,685.9 1139,682.3 1158,673.9 1177,664.3 1196,654.7 1215,643.7 1234,632.8 1253,621.6 1272,608.9 1291,599.9 1310,584.8 1329,568.7 1348,558.3 1367,545.8 1386,530.9 1405,519.6 1424,508.5 1443,499.1 1462,490.3 1481,482.5 1500,475 1519,470.4 1538,469.2 1557,460 1576,457.8 1595,456.8 1614,449.9" fill="none" stroke="currentColor" stroke-width="0.9" stroke-opacity="0.3" stroke-linecap="round"/><polyline points="-20,455.1 -1,454.5 18,454.8 37,455.7 56,456.6 75,457.6 94,458.9 113,460.2 132,461.8 151,463.9 170,466.2 189,468.7 208,471.6 227,475 246,478.9 265,483.4 284,488.6 303,495.1 322,501.9 341,507.4 360,516.7 379,525 398,534.9 417,545.7 436,557.1 455,570 474,584.4 493,598.9 512,613.7 531,627.7 550,640 569,649.7 588,653.8 607,650.7 626,643.4 645,629.4 664,615.9 683,598.2 702,582.7 721,572.8 740,567 759,563.3 778,559.7 797,557.7 816,557.6 835,559.2 854,562.2 873,566.3 892,571.9 911,579.8 930,587.5 949,598 968,604.9 987,619 1006,631.5 1025,644.7 1044,657.6 1063,670.6 1082,682.8 1101,690.4 1120,693.3 1139,691.9 1158,686.3 1177,678.6 1196,670.2 1215,660.1 1234,650.2 1253,643.8 1272,628.9 1291,616.7 1310,607.2 1329,591.9 1348,580.2 1367,568.7 1386,555.3 1405,544.1 1424,534 1443,525.7 1462,514.6 1481,507.1 1500,498.9 1519,495.9 1538,488.7 1557,488 1576,484.6 1595,476 1614,476.4" fill="none" stroke="currentColor" stroke-width="0.9" stroke-opacity="0.3" stroke-linecap="round"/><polyline points="-20,474.9 -1,474.1 18,474 37,475.2 56,476.4 75,477.9 94,479.3 113,481.3 132,483.6 151,485.9 170,488.9 189,492.3 208,496 227,500.5 246,505.1 265,510.1 284,516 303,523.1 322,529.1 341,536.9 360,545.8 379,554.7 398,563.6 417,574.7 436,586.1 455,597.8 474,610 493,622.7 512,634.9 531,646.6 550,655.1 569,661.8 588,665.4 607,662.6 626,658.1 645,646.6 664,635.2 683,621 702,608 721,596.3 740,591 759,587.9 778,585.5 797,584 816,585.8 835,586.5 854,591.5 873,593.1 892,598.7 911,608.5 930,613.5 949,621.9 968,631 987,643.5 1006,654.8 1025,665.3 1044,674.9 1063,685 1082,693.2 1101,698.5 1120,700.3 1139,699.3 1158,696.8 1177,692 1196,683 1215,676.8 1234,667.2 1253,659.3 1272,647 1291,635.5 1310,624.4 1329,613.8 1348,602 1367,590.3 1386,579 1405,567.1 1424,556.7 1443,546.9 1462,537.5 1481,529.8 1500,526.3 1519,515.6 1538,511.1 1557,511.3 1576,506.3 1595,502.7 1614,498.6" fill="none" stroke="currentColor" stroke-width="1.3" stroke-opacity="0.3" stroke-linecap="round"/><polyline points="-20,492.5 -1,491.6 18,491.2 37,492.6 56,494.1 75,496.1 94,498.1 113,500.6 132,503.3 151,506.4 170,510 189,513.8 208,518.7 227,523.7 246,528.6 265,533.9 284,539.9 303,547.9 322,554.2 341,562.9 360,570.7 379,579.4 398,588.3 417,598.2 436,608.6 455,619.4 474,629.7 493,641.4 512,651.5 531,660.5 550,668.1 569,673.7 588,675.6 607,674.7 626,669.6 645,661.6 664,650.7 683,639.6 702,627.4 721,615.9 740,610.8 759,607.8 778,607.3 797,606.5 816,606.5 835,608.1 854,611.5 873,617.6 892,622.7 911,630.4 930,634.5 949,643.1 968,651.9 987,661.4 1006,670.3 1025,679.2 1044,687.7 1063,695.3 1082,701.2 1101,704.6 1120,706.6 1139,706.4 1158,705 1177,700.1 1196,695.7 1215,688.5 1234,678.8 1253,670.1 1272,661.5 1291,651.3 1310,641.2 1329,630.7 1348,619.5 1367,608.4 1386,598.3 1405,587.3 1424,579.5 1443,569.3 1462,558.5 1481,549.5 1500,546.2 1519,537.4 1538,532.4 1557,530.7 1576,524.2 1595,521.5 1614,516.2" fill="none" stroke="currentColor" stroke-width="1" stroke-opacity="0.1" stroke-linecap="round"/><polyline points="-20,513.6 -1,512.9 18,512.3 37,513.7 56,515.8 75,518.1 94,520.8 113,523.8 132,527.2 151,530.9 170,535.2 189,539.3 208,544.6 227,549.4 246,555.4 265,561 284,567.5 303,575.3 322,582.1 341,589.6 360,597.4 379,605.7 398,614.2 417,623.1 436,632.7 455,642 474,651.8 493,660.2 512,668.3 531,675.9 550,682.5 569,686.9 588,688 607,687.1 626,682.7 645,677.2 664,668.6 683,659.4 702,649.7 721,640 740,630.9 759,629.8 778,628.9 797,628.4 816,630.9 835,632 854,636.4 873,639.5 892,646.1 911,651.3 930,656.6 949,663.6 968,670.9 987,678.2 1006,685.2 1025,692.4 1044,699.3 1063,705.4 1082,709.2 1101,711.7 1120,713.2 1139,714.1 1158,713.4 1177,709.5 1196,706.2 1215,699.7 1234,693.4 1253,685 1272,677.6 1291,668 1310,658.5 1329,650.4 1348,638.5 1367,629.9 1386,619.9 1405,608.4 1424,602.3 1443,589.8 1462,581 1481,575.2 1500,567.7 1519,563.2 1538,557.7 1557,551.6 1576,548 1595,542 1614,537.2" fill="none" stroke="currentColor" stroke-width="1.3" stroke-opacity="0.3" stroke-linecap="round"/><polyline points="-20,530.9 -1,530.4 18,530 37,531.1 56,533.6 75,536.4 94,539.7 113,543.2 132,546.8 151,551.2 170,555.6 189,560.3 208,565.5 227,571.2 246,576.9 265,583.5 284,589.8 303,596.2 322,603 341,610.1 360,617.5 379,625 398,633.5 417,641.4 436,650.3 455,658.6 474,666.1 493,674.2 512,682.2 531,688.9 550,693.2 569,696.6 588,698.2 607,697.8 626,694.4 645,689.3 664,682.5 683,675 702,666.2 721,657 740,649.5 759,645.2 778,646 797,645.6 816,648.1 835,650.5 854,654.3 873,657.7 892,661.7 911,666.8 930,672.1 949,677.8 968,683.5 987,690.4 1006,696.6 1025,701.7 1044,707.1 1063,711.8 1082,715.3 1101,717.4 1120,720.7 1139,721.7 1158,719.7 1177,718.3 1196,713.3 1215,708.5 1234,702.8 1253,696 1272,688.4 1291,680.3 1310,673.6 1329,664.6 1348,653.7 1367,643.6 1386,636.4 1405,625.6 1424,616.1 1443,606.4 1462,600.6 1481,592.3 1500,584.5 1519,580.4 1538,574.7 1557,570 1576,565.4 1595,558.8 1614,555.8" fill="none" stroke="currentColor" stroke-width="1.9" stroke-opacity="0.2" stroke-linecap="round"/><polyline points="-20,550.2 -1,550 18,549.9 37,550.4 56,553.4 75,556.7 94,560.2 113,564.3 132,568.6 151,572.7 170,577.6 189,582.6 208,588.1 227,593.5 246,598.9 265,605.2 284,610.9 303,617.5 322,624 341,630.8 360,637.4 379,645.1 398,651.4 417,659.7 436,667.2 455,675.2 474,681.9 493,688.9 512,695.6 531,701 550,705.6 569,708.7 588,709.7 607,709.1 626,706.7 645,702.6 664,697.9 683,691.1 702,684.5 721,677 740,668.9 759,661.1 778,660.4 797,661.7 816,663.6 835,665.8 854,669 873,672.9 892,676.8 911,680.8 930,685.8 949,691 968,695.8 987,701.6 1006,706.8 1025,710.6 1044,716.5 1063,718.9 1082,723.3 1101,724.7 1120,726.8 1139,728.1 1158,727 1177,725.9 1196,722.2 1215,718.2 1234,712.8 1253,706.8 1272,701 1291,694.5 1310,684.8 1329,678.8 1348,667.7 1367,659 1386,653.7 1405,641.5 1424,633.3 1443,626.5 1462,617.9 1481,608.1 1500,603.6 1519,598.9 1538,593.3 1557,587.7 1576,581.1 1595,577.7 1614,573.3" fill="none" stroke="currentColor" stroke-width="0.8" stroke-opacity="0.2" stroke-linecap="round"/><polyline points="-20,571.2 -1,571.2 18,571.5 37,571.9 56,574.3 75,577.9 94,581.9 113,586 132,590.5 151,595 170,600 189,605.1 208,610.2 227,615.3 246,620.9 265,626.7 284,632.5 303,638.4 322,644.3 341,650.8 360,657.3 379,663.9 398,670.2 417,676.7 436,684.1 455,690.5 474,697.7 493,703.5 512,709.9 531,714.5 550,718.3 569,721 588,722.1 607,721.7 626,719.9 645,716.4 664,711.9 683,706.6 702,700.4 721,693.7 740,688.9 759,681.7 778,675.7 797,676.9 816,679.3 835,681.6 854,684.1 873,687 892,690.1 911,694 930,697.9 949,703.1 968,707.3 987,711.6 1006,715.3 1025,719.4 1044,723.2 1063,727.6 1082,728.9 1101,731.7 1120,733.9 1139,734.9 1158,734.8 1177,733.4 1196,730.9 1215,727.4 1234,722.8 1253,717.8 1272,711.8 1291,705.4 1310,699.5 1329,691.4 1348,685.3 1367,677.2 1386,666.6 1405,660 1424,651.3 1443,642.7 1462,634.1 1481,627.5 1500,622.3 1519,615.2 1538,609.7 1557,606.6 1576,598.8 1595,594.5 1614,592" fill="none" stroke="currentColor" stroke-width="1.4" stroke-opacity="0.2" stroke-linecap="round"/><polyline points="-20,594.6 -1,594.9 18,595.4 37,596.1 56,596.9 75,601 94,604.9 113,609.4 132,613.8 151,618.4 170,623.2 189,628.3 208,633.2 227,638.2 246,643.4 265,648.6 284,653.7 303,659.4 322,665.3 341,670.5 360,677.3 379,682.9 398,688.8 417,694.9 436,702.2 455,708 474,714.4 493,719.3 512,724.7 531,729 550,732.4 569,734.9 588,736.2 607,735.5 626,734.2 645,732.4 664,727.7 683,723.3 702,719.5 721,713.2 740,707.6 759,701.7 778,694.8 797,691.8 816,693.6 835,695.6 854,698 873,700.5 892,703.5 911,707.5 930,709.8 949,714.6 968,717.7 987,721.7 1006,725.5 1025,729.6 1044,732.2 1063,734.7 1082,736.3 1101,739.2 1120,741.9 1139,743.1 1158,743.4 1177,742.2 1196,739.9 1215,737.7 1234,733.3 1253,730.2 1272,725.2 1291,718.7 1310,712.9 1329,706.2 1348,697.4 1367,690.3 1386,682.2 1405,675.4 1424,667 1443,658.8 1462,652.3 1481,647.1 1500,639 1519,636.9 1538,631.1 1557,624.4 1576,621.2 1595,614.9 1614,611.7" fill="none" stroke="currentColor" stroke-width="0.9" stroke-opacity="0.2" stroke-linecap="round"/><polyline points="-20,613.5 -1,614.2 18,614.9 37,615.6 56,616.5 75,619.1 94,623.2 113,627.4 132,631.7 151,636.4 170,640.9 189,645.5 208,650.2 227,654.9 246,659.9 265,664.8 284,669.5 303,674.8 322,680.1 341,685.5 360,691.1 379,697.7 398,703.3 417,708.9 436,714.8 455,720.6 474,726.5 493,731.8 512,736.6 531,740.8 550,743.6 569,745.6 588,747 607,746.6 626,746.5 645,744.4 664,740.9 683,738 702,733.4 721,727.2 740,722.6 759,716.3 778,709.9 797,704 816,703.6 835,705.7 854,707.7 873,709.5 892,712.6 911,714.8 930,719.2 949,722.5 968,726.5 987,728.5 1006,732.2 1025,735.4 1044,738 1063,740.4 1082,742.4 1101,745.7 1120,748.2 1139,749.2 1158,749.7 1177,748.7 1196,746.9 1215,744.5 1234,741.6 1253,737 1272,733.5 1291,727.8 1310,722.5 1329,715.4 1348,708.3 1367,702.1 1386,694.5 1405,686.6 1424,678.3 1443,671.6 1462,664.9 1481,660.2 1500,656.6 1519,649.5 1538,641.7 1557,637 1576,633.9 1595,629.6 1614,622.7" fill="none" stroke="currentColor" stroke-width="1.6" stroke-opacity="0.2" stroke-linecap="round"/><polyline points="-20,635.9 -1,636.7 18,637.5 37,638.4 56,639 75,639.8 94,643.4 113,647.5 132,651.6 151,655.9 170,660.2 189,664.4 208,668.7 227,673.3 246,678.1 265,682.2 284,687.7 303,692.4 322,697.3 341,702.7 360,708.1 379,713.6 398,718.6 417,724.7 436,730.1 455,735.9 474,741.1 493,746.2 512,750.1 531,754.2 550,757 569,758.8 588,760 607,760.5 626,759.2 645,757.2 664,754.9 683,751.6 702,748.4 721,743.2 740,738.1 759,732.8 778,726.4 797,721.1 816,714.8 835,715.9 854,718.2 873,720.5 892,723 911,725 930,728.6 949,731.5 968,733.9 987,736.8 1006,740.3 1025,742.8 1044,745.4 1063,747.4 1082,750.1 1101,753.2 1120,755.5 1139,757.6 1158,757.1 1177,756.6 1196,756.3 1215,753.7 1234,751.8 1253,746.5 1272,742.7 1291,738.4 1310,733 1329,726.9 1348,720.6 1367,713.7 1386,706.3 1405,698.8 1424,690.1 1443,686.1 1462,680.9 1481,674.9 1500,672 1519,664.4 1538,661.9 1557,654.4 1576,650.6 1595,646.4 1614,640.6" fill="none" stroke="currentColor" stroke-width="2" stroke-opacity="0.2" stroke-linecap="round"/><polyline points="-20,660.2 -1,660.9 18,661.7 37,662.4 56,663 75,663.5 94,664 113,667.9 132,671.8 151,675.8 170,679.8 189,684 208,687.9 227,692.4 246,696.5 265,701.1 284,705.3 303,710 322,714.9 341,720.4 360,725.2 379,730.6 398,736.1 417,741.3 436,746.6 455,751.8 474,756.6 493,761.4 512,765.2 531,768.9 550,771.7 569,773.8 588,774.1 607,773.8 626,773.9 645,771.8 664,770.4 683,767.3 702,763.2 721,759.1 740,754.4 759,748.5 778,743.7 797,737.4 816,732.2 835,725.5 854,728.5 873,730.8 892,732.1 911,735 930,737.4 949,740.1 968,743.3 987,745.7 1006,748.4 1025,750.8 1044,752.9 1063,755 1082,758.4 1101,761.5 1120,764.6 1139,765.5 1158,765.7 1177,765.9 1196,765.3 1215,762.4 1234,760 1253,756.6 1272,753.5 1291,748.5 1310,743.7 1329,738.1 1348,731.8 1367,724.8 1386,717.8 1405,712.8 1424,707.7 1443,703.4 1462,696.6 1481,693.4 1500,689.3 1519,682.3 1538,676.5 1557,674.2 1576,668.1 1595,663 1614,659.8" fill="none" stroke="currentColor" stroke-width="1.5" stroke-opacity="0.3" stroke-linecap="round"/><polyline points="-20,682.3 -1,683.1 18,683.7 37,684.1 56,684.5 75,684.7 94,684.7 113,685.7 132,689.5 151,693.1 170,696.7 189,700.8 208,704.8 227,708.4 246,712.4 265,717 284,721.6 303,726 322,730.4 341,735.8 360,740.7 379,746 398,751.2 417,756.3 436,761.6 455,767 474,771.4 493,775.2 512,778.7 531,782.3 550,784.6 569,786 588,787.8 607,786.9 626,787.1 645,785.5 664,783.2 683,780.3 702,776.9 721,772.6 740,767.9 759,763.7 778,758.1 797,751.1 816,746.8 835,740 854,736.6 873,738.1 892,741.3 911,743.6 930,745.9 949,748.1 968,750.8 987,753.3 1006,755.9 1025,757.8 1044,759.7 1063,762.9 1082,765.9 1101,769.8 1120,771.4 1139,773.1 1158,773.6 1177,773.3 1196,773 1215,770.2 1234,768.8 1253,765.5 1272,761.8 1291,757.8 1310,752.2 1329,747.4 1348,741.9 1367,734.4 1386,731.1 1405,723.7 1424,721.9 1443,717.5 1462,709.8 1481,706.4 1500,701.1 1519,696.2 1538,692.7 1557,688.2 1576,683.7 1595,680 1614,677.2" fill="none" stroke="currentColor" stroke-width="1.9" stroke-opacity="0.3" stroke-linecap="round"/><ellipse cx="1117.8" cy="371.5" rx="40.6" ry="23.9" fill="currentColor" fill-opacity="0.14"/><ellipse cx="592" cy="334.2" rx="59.9" ry="35.2" fill="currentColor" fill-opacity="0.14"/><ellipse cx="1192.2" cy="263.4" rx="58.7" ry="34.5" fill="currentColor" fill-opacity="0.14"/></svg>